<svg version="1" xmlns="http://www.w3.org/2000/svg" width="1365.333" height="1365.333" viewBox="0 0 1024.000000 1024.000000"><path d="M484.5.6c-17 1.1-40.9 3.9-56.5 6.5C211.6 43.4 43.4 211.6 7.1 428 1.9 458.7.6 476 .6 512s1.3 53.3 6.5 84C43.4 812.4 211.6 980.6 428 1016.9c30.7 5.2 48 6.5 84 6.5s53.3-1.3 84-6.5c216.4-36.3 384.6-204.5 420.9-420.9 5.2-30.7 6.5-48 6.5-84s-1.3-53.3-6.5-84C978.6 199.2 793.4 26 562 2.4 547.3.9 497.6-.2 484.5.6zm107 246.9c35 6.5 62.3 20.2 84.5 42.5 27.3 27.2 41.4 60.6 48.7 115 1.4 11 1.7 29.9 2.2 156.9l.6 144.5 39 6.8c21.5 3.7 39.1 6.7 39.3 6.8.1 0 .2 14 .2 31v31l-127.2-.2-127.3-.3-.3-30.7-.2-30.6 2.7-.6c1.6-.3 18.6-3.3 37.8-6.6 19.3-3.3 36-6.2 37.3-6.5l2.3-.6-.4-139.2c-.3-96.4-.8-141.8-1.6-147.7-3.9-29.3-11.8-51.2-23.7-65.4-11.1-13.4-29.7-23.8-51.4-28.7-11.1-2.6-43.8-3.7-56.1-2-41.5 5.9-76.7 29.3-99.4 66.2l-4.5 7.3V706l2.3.5c1.2.3 18 3.2 37.2 6.5 19.3 3.3 36.2 6.3 37.8 6.6l2.7.6-.2 30.6-.3 30.7-127.2.3-127.3.2v-31c0-17 .1-31 .3-31.1.1 0 17.8-3 39.2-6.8l39-6.7V328.6l-39-6.6-39-6.6-.3-31.2-.2-31.2h164.9l.5 5.2c.4 2.9 1.8 18.6 3.1 34.8 1.4 16.2 2.7 31.4 3.1 33.8l.5 4.3 5.1-7.3c7.2-10.5 11-15.1 21.7-26.1 27.5-28.2 57.3-44.3 95.5-51.3 20.8-3.8 54.5-3.3 78.1 1.1z"/></svg>