<?xml version="1.0" standalone="no"?>
<!DOCTYPE svg PUBLIC "-//W3C//DTD SVG 20010904//EN"
 "http://www.w3.org/TR/2001/REC-SVG-20010904/DTD/svg10.dtd">
<svg version="1.0" xmlns="http://www.w3.org/2000/svg"
 width="1024.000000pt" height="1024.000000pt" viewBox="0 0 1024.000000 1024.000000"
 preserveAspectRatio="xMidYMid meet">
<metadata>
Created by potrace 1.11, written by Peter Selinger 2001-2013
</metadata>
<g transform="translate(0.000000,1024.000000) scale(0.100000,-0.100000)"
fill="#000000" stroke="none">
<path d="M4803 10230 c-1286 -90 -2438 -617 -3329 -1522 -244 -247 -444 -493
-617 -755 -480 -729 -749 -1498 -838 -2398 -17 -170 -17 -700 0 -870 63 -636
205 -1167 461 -1725 414 -903 1127 -1696 1998 -2224 660 -399 1387 -636 2207
-717 170 -17 700 -17 870 0 636 63 1167 205 1725 461 743 341 1438 905 1935
1571 462 617 772 1312 924 2064 70 348 95 619 95 1005 0 308 -8 437 -45 710
-92 669 -335 1353 -685 1932 -432 712 -1030 1310 -1742 1742 -566 343 -1245
586 -1897 680 -309 45 -784 65 -1062 46z m964 -2441 c327 -36 620 -146 848
-318 354 -268 551 -665 632 -1271 15 -111 17 -292 20 -1572 l4 -1448 22 -5
c12 -3 180 -32 372 -65 193 -33 362 -63 378 -66 l27 -6 -2 -306 -3 -307 -1277
-3 -1278 -2 0 310 0 310 23 5 c12 3 182 32 377 65 195 33 365 63 378 65 l22 5
0 1243 c0 1300 -6 1555 -40 1751 -35 204 -108 392 -197 506 -117 148 -297 254
-522 306 -134 31 -419 44 -563 25 -414 -55 -749 -273 -987 -641 l-61 -94 0
-1548 0 -1548 23 -5 c12 -2 182 -32 377 -65 195 -33 365 -63 378 -65 l22 -5 0
-310 0 -310 -1277 2 -1278 3 -3 307 -2 306 27 6 c16 3 186 33 378 66 193 33
360 62 373 65 l22 5 0 1885 c0 1037 -1 1885 -2 1886 -2 0 -181 31 -398 68
l-395 67 0 310 0 309 827 3 827 2 5 -42 c3 -24 17 -178 31 -343 14 -165 28
-322 31 -348 l6 -48 50 73 c120 174 278 340 443 463 109 82 326 198 447 239
274 93 579 122 915 85z"/>
</g>
</svg>
